<svg id="Layer_1" data-name="Layer 1" xmlns="http://www.w3.org/2000/svg" viewBox="0 0 649.44 666.24"><path d="M-720.92,16l-1.2-37.68c0-2.87-1-13.42.24-14.88s10.66-1.37,13.92-1.92L-669.08-43l8.88,39.84,13.68,12,27.84,24.48c3.49,2.8,6.58,7.46,10.8,9.36l68.64-71.52,45.84,42.24h-.24c-8.36-2.39-21.1.17-28.32,2.4-15.37,4.74-26.2,11.38-37.2,20.16l-11.52,11.52,55,49.92-6,11c-6.19,10.45-12.37,20.2-19.2,29.76-4.17,5.83-8.49,13.7-14.16,18l-63.36-54.24c-10.42,9.75-18.72,25.77-22.8,41.52-1.44,5.57-1.48,11.38-2.4,17-1.23,7.51,1.44,15,2.4,20.88h-.24l-1.44-1.44-34.56-29.28c-2.57-2-10.27-7-11.28-9.84l43-53.76c3.56-4.71,15.73-16.62,17-21.6l-51.6-45.12Z" transform="translate(740.84 43.03)" style="fill:#fff;fill-rule:evenodd"/><path d="M-158.84-43l34.56,4.08c6.06,1,13.57.21,18.72,2.4l-1.2,38.16c-.73,4.74,1,10.81-.72,14.64l-40.08,4.08-51.84,45.6q30.12,37.54,60.24,75.12l-1.2,1.44-46.56,39.12c7.62-37-7-58.83-22.56-79.68l-.72.72-65.52,55.68-11.52-14.16c-6.94-9.19-13.07-18.75-19.2-28.8-1-1.67-9.17-14.45-8.64-15.84l57.6-51.84v-.48L-270,35c-15.86-12.37-38.36-25.12-64.8-21.6l.24-.72,45.6-41.52q34.56,35.75,69.12,71.52l51.6-45.12Z" transform="translate(740.84 43.03)" style="fill:#fff;fill-rule:evenodd"/><path d="M-416.36-26.23-384.2,5.69l-5,12.48-2.16,7L-416.12.65l-21.36,21.12h-.24c-1.18-7-6.68-13.39-7.2-19.44Z" transform="translate(740.84 43.03)" style="fill:#fff;fill-rule:evenodd"/><path d="M-492.44,49.85c.77.94-1.54,7.82-2.16,9.84-1.82,5.92-8.13,27.91-11.52,30.72-2.46-1.83-12.77-10.75-13.68-13.2Z" transform="translate(740.84 43.03)" style="fill:#fff;fill-rule:evenodd"/><path d="M-334.28,55.85c3.07,1.48,22.1,20.76,24,24L-322,90.41l-.48-.24-5.28-13.44Z" transform="translate(740.84 43.03)" style="fill:#fff;fill-rule:evenodd"/><path d="M-587.24,144.65l14.64,12.24L-714,298.49q37.92,38,75.84,76.08L-652,387.05h-.48q-44.16-44.16-88.32-88.32Q-664.05,221.69-587.24,144.65Z" transform="translate(740.84 43.03)" style="fill:#fff;fill-rule:evenodd"/><path d="M-243.56,146.57-91.4,298.49-178,385.13l-.48-.48-13.68-12,73.92-74.16q-69.72-70-139.44-139.92Z" transform="translate(740.84 43.03)" style="fill:#fff;fill-rule:evenodd"/><path d="M-228.92,264.41c-3,.46-5.42-1.06-7.2-1l-13.92,1a114.63,114.63,0,0,1-16.32-4.08c2.23-7.59,16.2-16.09,24.24-18.48l11-1.68h.48c-1.35-5.75-7-8.15-12-10.32-11.77-5.1-31.45-6.72-45.84-2.4-4.19,1.26-7.85,3.75-11.76,4.8,1.41-7.44,1.27-15.83,1.2-24.24,19.44,0,36.11,5.2,51.12,10.56,7.3,2.6,13.27,6.26,23,6.48v-.24c-5.52-8-14.37-12.42-22.08-18.24l-19-16.08-12.72-13c-5.34-6.64-12-12.37-17.28-19.2a309.65,309.65,0,0,1-30.72-48c-12.54-24.62-19.73-51.89-25.68-83.52L-354,5.93l-.48-12.24.72-14.64-1.92-4.56c-6,4.45-5.18,16-10.08,21.12-4.39,4.58-7.83,16.16-10.56,23-5.4,13.6-7.54,26.51-12,41.52-3.13,10.52-7.06,21.21-6.72,34.56,6.95,1.78,10.84-4.8,17.76.24,13.35,9.71,8.32,35.08,2.4,48.48L-384,158.81c-2.19-.86-3.13-3.23-5.76-3.84-9-2.1-15.58,17.79-23.52,21.12-9.73-2-11.62-14.31-18.48-19.44-3.32-2.48-9.31-2-11,1.68l-1,.72c-7.58-13.59-22.23-33.42-13-55.44,1.72-4.08,4.4-8.37,8.4-10.08,5.23-2.24,9.45,1.34,15.12,1.44,2.17-8.23-3.11-22.52-5-29.52l-4.08-15.84V46.25c-5.67-17-11.51-33.94-19-48.72-3.1-6.16-6.08-19.17-11-23-2.54,8.26.34,16.05-1.2,25.68-1.83,11.47-.92,22.79-3.12,33.36-8.26,39.73-20.08,72-38.4,101-14.17,22.47-33.85,46.12-54.24,62.4l-16.56,13.2c-5.52,3.94-13.66,7.45-16.56,13.92l-.48,1c9.12-.61,14.61-3.37,21.36-6,11.93-4.65,33.85-11.24,49.2-11-.42,1-.22.78-1.44,1,1.79,4.73,2,10.84,1.92,16.56l-1,1a99.27,99.27,0,0,1-14.16-4.08l-8.4.48c-6.57-.93-19-2.56-25,1.2-1.37.85-2.22,2.67-3.6,3.6-.46.67,0,.35.72.48-2,3.94-12.06,3.65-14.16,12,5.24,1.05,10.65,1.76,15.12,2.88-.48.88.11.4-1,.72,2.41,4.35,5.59,3.17,9.84,4.08,2.35.5,11.07,9.94,11.76,12.48-9.56,3.13-23.89,6.19-37.92,4.08-9.83-1.48-19.75-3.08-28.08-.48,5.08,5.3,15.14,7,21.84,10.56,17.54,9.4,35.61,20.59,43.68,39.36,7.49,17.42-4.29,36.75-8.64,50.88-2.33,7.57-4.22,17.1,0,24.24,2.91,4.91,7.3,8.6,12,11.76,4.06,2.72,8.82,5.6,14.16,7-.77,2.7-3.71,4.24-5.28,6.24-4.19,5.31-10.86,11.77-17,14.88-3.8,1.9-9.57,1.88-12.24,5.52l-.24,1.68c-1.37,1.57-3.88.57-6,1.44-3.85,1.57-4.74,6.06-6,9.36,6.69,7.75,31.11,3.54,43.92,7,8.8,2.34,16.74,5.45,23.28,10.08,5.3,3.75,10.27,8.6,16.56,11.28,6.67,2.84,14.08,1.84,19-1.92,3.72-2.87,5.9-7.41,8.16-11.76l5.28-10.8c8-2.27,10.43,2.84,14.16,4.56,10.88,5,13.11,32.45,30,32.4l.24-.24c-.4-3.57-1.75-4.29-3.12-6.48-1.67-2.68-2.48-6.47-3.12-10.08-3.38-19,11.51-36.6,23-41.28,11.32,4.62,18,14.19,21.6,26.64.38,1.32,2.89,12.12,1.44,14.4-2,3.14-.69,4.5-1.68,7.44-1.19,3.51-3.85,4.75-4.56,9.12v.24c5.37,1.45,8.61-2.41,11-4.8,7.82-7.71,9.72-21.31,18.48-28.08,3.2-2.48,12.78-1,14.64-2.64,2.66,1.07,4.21,7.28,5.52,9.84,3.3,6.44,7.45,13.12,15.12,15.12C-320,480-301.87,461.47-292,457.37c8.82-3.68,18.24-3.83,29.52-5.76,5.78-1,15.15,1.51,19,.24,3.25-1.09,3.59-3.45,7-4.56-.49-7.9-9.06-9.39-15.6-13.2-7.95-4.64-28.44-18.12-31.2-26.4,12.9-3.27,26.48-13,29-26.64,1.59-8.49-4.22-22.81-6.72-28.8-1.29-3.1-10.52-24-7-29.52,1.63-2.53,1.48-6,2.16-8.64l6-10.32c8.73-12.22,22.11-21.31,36-28.32,2.27-1.15,4.82-.66,7.2-1.92,1.12-.6.93-1.58,1.44-2.16,0,0,14.24-6.82,14.64-7l.24-.48C-208.53,261.14-219.11,262.9-228.92,264.41Zm-244.56,66.72c-12.32,3.61-24.14-2.08-26.16-11.76l-.24-6c-.59-3-1.26-6.78-.48-10.56a55.12,55.12,0,0,1,3.6-12.24c12.84,3.74,21.29,8.94,31.44,14.88l15.84,7C-454.15,321.85-462.59,327.93-473.48,331.13Zm73.68,36.72c-1.64.44-4.17,1.16-6.24.48-3.28-1.09-4.67-3.75-7.2-5.52-5,.3-5.46,7.28-12.48,5.76-11.21-2.43-13.5-10-9.6-22.32,2.75-8.73,9.59-19.65,14.4-25.92l6.72-7c8.19,3.37,20.18,26.15,22.56,36.72C-389.4,360-392.23,365.8-399.8,367.85Zm67.92-41.76c-9.81,12.67-31,2.84-39.36-3.84-2.9-2.32-5.43-6.44-7.2-9.84l13.92-6,23.28-13,9.84-2.88c1.62,1.49,1.71,4.26,2.4,6.72C-326.26,307.08-326.62,319.29-331.88,326.09Z" transform="translate(740.84 43.03)" style="fill:#fff;fill-rule:evenodd"/><path d="M-252,334.73-212.84,370l54.24,48.72,22.32,43.68,11.52,22.32c1,2,3,3.47,3.6,5.52-.5.47-.25.09-.48,1l-10.56-3.84c-8.7-3.43-17.43-5.9-25.68-9.6l-40.32-14.88-26.4-23-16.8-14.4c-2.31-1.83-6-3.86-7.44-6.48,4-4.28,8.37-7.81,10.8-13.68,3-7.22.5-16.54-1.44-22.8l-4.32-14.16C-247.7,358.51-253.26,349.13-252,334.73Z" transform="translate(740.84 43.03)" style="fill:#fff;fill-rule:evenodd"/><path d="M-580.52,338.33c3.22,3.68-4.51,21.84-5.52,24.24-8.65,20.47-17.17,45.28,5,58.08l-1.2,1.44-47.28,40.56L-654.92,472c-10.75,4.34-22.2,7.77-33.12,12.48-5.7,2.46-12.15,5.94-18.48,6.72.09-1.15-.26-1.36.24-2.16,9.28-15.69,17.52-34.55,27.12-50.88l9.84-19.68Z" transform="translate(740.84 43.03)" style="fill:#fff;fill-rule:evenodd"/><path d="M-576.92,462.41c11-.1,22.89.35,30.72,4.08l33.36,33.36,96.72,96.48,127-127,9.6-3.6c5.67-1.74,11.13-1.81,17.76-2.88l6.24-.24L-416.12,623.21Z" transform="translate(740.84 43.03)" style="fill:#fff;fill-rule:evenodd"/></svg>